<?xml version="1.0" encoding="iso-8859-1"?>
<!-- Generator: Adobe Illustrator 16.0.0, SVG Export Plug-In . SVG Version: 6.00 Build 0)  -->
<!DOCTYPE svg PUBLIC "-//W3C//DTD SVG 1.1//EN" "http://www.w3.org/Graphics/SVG/1.1/DTD/svg11.dtd">
<svg xmlns="http://www.w3.org/2000/svg" xmlns:xlink="http://www.w3.org/1999/xlink" version="1.1" id="Capa_1" x="0px" y="0px" width="512px" height="512px" viewBox="0 0 84.075 84.076" style="enable-background:new 0 0 84.075 84.076;" xml:space="preserve">
<g>
	<g id="_x35__x5F_2">
		<g>
			<path d="M73.758,3.461h-6.417c-3.765,0-7.058,2.343-8.858,5.388h-0.057c-0.955-0.563-2.164-1.194-3.672-1.818     c-3.312-1.373-8.029-2.838-14.326-3.354c-0.553-0.113-1.123-0.175-1.707-0.175h-1.152c-0.911-0.035-1.835-0.063-2.804-0.063     v0.063H15.947c-4.728,0-8.575,4.024-8.575,8.79c0,1.763,0.532,3.4,1.435,4.769c-2.338,1.546-3.892,4.201-3.892,7.225     c0,1.791,0.545,3.457,1.476,4.839c-2.36,1.54-3.932,4.206-3.932,7.245c0,1.822,0.569,3.51,1.527,4.904     C1.597,42.811,0,45.488,0,48.548c0,4.767,3.847,9.08,8.576,9.08h22.773c0.211,0,0.409-0.047,0.617-0.062     c-0.965,1.334-1.985,2.382-3.079,4.081c-0.109,0.171-0.208,0.349-0.298,0.531c-2.458,5.024-3.047,9.312-1.751,12.743     c1.246,3.298,3.712,4.523,4.438,4.82c1.506,0.6,2.923,0.895,4.259,0.895h0.001c4.422,0,7.374-3.209,8.101-6.483     c0.867-2.794,9.092-11.894,17.785-19.661c1.678,1.188,3.717,1.457,5.918,1.457h6.417c5.69,0,10.318-4.228,10.318-9.963V14.153     C84.077,8.418,79.448,3.461,73.758,3.461z M57.986,50.537l-0.631,0.649c-3.312,3.021-17.212,15.952-18.73,21.729     c0,0-0.449,2.521-3.087,2.521c-0.638,0-1.402-0.147-2.32-0.513c0,0-4.256-1.741,0-10.449c0,0,2.335-3.192,5.027-6.535     c0.75-0.932,0.96-2.189,0.556-3.318c-0.404-1.127-1.366-1.813-2.536-2.045H8.576c-1.887,0-3.416-2.127-3.416-4.027     s1.529-3.15,3.416-3.15h13.659l0.001-0.003h1.984c1.457,0,2.637-1.19,2.637-2.658s-1.181-2.659-2.637-2.659h-9.507v0.028h-3.68     c-1.886,0-3.416-1.833-3.416-3.736c0-1.9,1.53-3.296,3.416-3.296H25.94c1.457,0,2.637-1.165,2.637-2.6     c0-1.436-1.181-2.601-2.637-2.601H13.49c-1.887,0-3.416-1.688-3.416-3.588c0-1.901,1.529-3.443,3.416-3.443h1.549     c0.302,0.032,0.597,0.092,0.908,0.092h10.516l0.001-0.01h1.195c1.457,0,2.638-1.182,2.638-2.642c0-1.458-1.181-2.641-2.638-2.641     H15.186c-1.519-0.35-2.655-1.714-2.655-3.35c0-1.901,1.53-3.59,3.416-3.59h21.607c0.707,0.03,1.373,0.077,2.037,0.128     c1.583,0.118,3.051,0.285,4.4,0.498c1.061,0.167,2.049,0.503,2.972,0.711c2.357,0.533,4.305,1.17,5.83,1.801     c1.803,0.747,2.034,1.479,2.814,1.997c0.156,0.104,0.279,0.192,0.396,0.278c0,0.013-0.001,0.024-0.001,0.037v31.833     c0,0.646,0.065,1.275,0.179,1.891c0.168,0.914,1.479,1.782,1.867,2.599L57.986,50.537z M78.918,45.986     c0,2.861-2.322,4.909-5.16,4.909h-7.293c-2.837,0-5.158-2.048-5.158-4.909V14.153c0-2.86,2.321-5.492,5.158-5.492h7.293     c2.838,0,5.16,2.632,5.16,5.492V45.986z" fill="#3688b9"/>
		</g>
	</g>
</g>
<g>
</g>
<g>
</g>
<g>
</g>
<g>
</g>
<g>
</g>
<g>
</g>
<g>
</g>
<g>
</g>
<g>
</g>
<g>
</g>
<g>
</g>
<g>
</g>
<g>
</g>
<g>
</g>
<g>
</g>
</svg>
