<?xml version="1.0" encoding="iso-8859-1"?>
<!-- Generator: Adobe Illustrator 19.0.0, SVG Export Plug-In . SVG Version: 6.00 Build 0)  -->
<svg xmlns="http://www.w3.org/2000/svg" xmlns:xlink="http://www.w3.org/1999/xlink" version="1.1" id="Capa_1" x="0px" y="0px" viewBox="0 0 490 490" style="enable-background:new 0 0 490 490;" xml:space="preserve" width="512px" height="512px">
<g>
	<g>
		<path d="M383.947,490L230.709,364.252H50.713c-27.924,0-50.631-23.111-50.631-51.528V51.528C0.082,23.111,22.789,0,50.713,0    h388.574c27.924,0,50.631,23.111,50.631,51.528v261.197c0,28.417-22.707,51.528-50.631,51.528h-55.34V490z M50.713,30.615    c-11.032,0-20.016,9.388-20.016,20.913v261.197c0,11.525,8.984,20.913,20.016,20.913h190.938l111.681,91.635v-91.635h85.954    c11.032,0,20.016-9.388,20.016-20.913V51.528c0-11.525-8.984-20.913-20.016-20.913H50.713z" fill="#3688b9"/>
	</g>
	<g>
		<rect x="75.812" y="89.512" width="338.376" height="30.615" fill="#3688b9"/>
	</g>
	<g>
		<rect x="75.812" y="164.569" width="277.147" height="30.615" fill="#3688b9"/>
	</g>
	<g>
		<rect x="75.812" y="239.611" width="215.917" height="30.615" fill="#3688b9"/>
	</g>
</g>
<g>
</g>
<g>
</g>
<g>
</g>
<g>
</g>
<g>
</g>
<g>
</g>
<g>
</g>
<g>
</g>
<g>
</g>
<g>
</g>
<g>
</g>
<g>
</g>
<g>
</g>
<g>
</g>
<g>
</g>
</svg>
