<svg xmlns="http://www.w3.org/2000/svg" width="40" height="40" viewBox="0 0 40 40"><g><g><g><g><path fill="#fff" d="M19.813 39.508c10.942 0 19.812-8.734 19.812-19.508S30.755.492 19.812.492C8.87.492 0 9.226 0 20s8.87 19.508 19.813 19.508z"/></g><g><path fill="#f93" d="M0 20C0 9.226 8.87.492 19.813.492 30.755.492 39.624 9.226 39.624 20s-8.87 19.508-19.813 19.508C8.87 39.508 0 30.774 0 20zm14.452-9.965a8.026 8.026 0 0 1-.014-.004c-.042.041-.056.055.014.004zm.129.033c-.173.632-.346 1.308-.518 1.932-.063.123 0 .185.124.185.5.123 1.063.246 1.626.43.562.185.874.739.75 1.231-.75 3.2-1.563 6.339-2.375 9.477-.063.43-.438.677-.938.554a11.032 11.032 0 0 1-1.375-.308c-.188 0-.25 0-.313.185-.187.492-.437 1.046-.687 1.6-.125.246-.188.43-.313.677 1.5.369 2.938.738 4.376 1.107 0 .124-.063.185-.063.247-.313.984-.563 2.03-.813 3.077-.062.123-.062.184.126.246.624.123 1.25.246 1.874.43.188.062.188 0 .25-.123.125-.553.313-1.107.438-1.661s.313-1.108.438-1.662c.562.123 1.062.246 1.562.37.125.061.063.123.063.246-.313.984-.563 2.03-.813 3.077-.063.123-.063.184.125.246.563.123 1.188.307 1.75.43.313.124.313.062.375-.184.25-.985.5-2.03.75-3.015.063-.185.188-.247.375-.185 1.25.185 2.5.308 3.813.123 1-.123 1.875-.554 2.562-1.354.563-.677.875-1.415 1.125-2.277.188-.677.25-1.415.125-2.092-.25-.862-.75-1.539-1.5-2.092-.25-.185-.5-.308-.75-.493.125 0 .188-.061.25-.061.5-.185 1-.431 1.375-.8.5-.493.75-1.108.938-1.785.25-.984.187-1.97-.375-2.892a5.271 5.271 0 0 0-1.625-1.477l-2.063-.923c-.188-.062-.25-.123-.188-.308.125-.308.188-.615.25-.923.188-.738.375-1.477.563-2.277-.063 0-.063-.061-.125-.061-.688-.185-1.313-.308-1.938-.493-.125-.061-.187 0-.187.123l-.188.739c-.25.8-.437 1.538-.625 2.338-.062.062-.125.185-.187.185-.5-.123-1.063-.246-1.563-.37.063-.122.063-.184.063-.245.25-.985.5-2.031.75-3.016.063-.123.063-.184-.125-.246a19.333 19.333 0 0 1-1.813-.43c-.187-.062-.25 0-.312.184-.25 1.046-.5 2.03-.75 3.077-.063.184-.125.246-.313.184-.687-.184-1.375-.307-2.062-.492-.64-.172-1.28-.29-1.92-.455zm.044-.16l-.173.127.129.033.044-.16zm3.688 12.679c.125-.616.312-1.17.437-1.787.063-.185.063-.246.25-.185 1.25.247 2.563.493 3.688 1.11.5.307 1 .615 1.312 1.108.688.986.188 2.526-1 2.896-.688.246-1.375.246-2.125.185-1.063-.062-2.125-.37-3.125-.616 0 0-.063-.062-.125-.062.25-.924.438-1.787.688-2.65zm1.812-3.94c-.25-.062-.438-.124-.688-.185-.125-.062-.187-.124-.125-.247a85.788 85.788 0 0 0 1-3.815c.063-.185.125-.246.313-.185.938.247 1.813.431 2.688.8.562.247 1.125.616 1.437 1.17.625 1.046 0 2.4-1.188 2.646-.25.061-.562.123-.687.123-1 0-1.813-.185-2.75-.308z"/></g></g></g></g></svg>