<svg xmlns="http://www.w3.org/2000/svg" width="40" height="40" viewBox="0 0 40 40"><defs><clipPath id="dy70a"><path d="M20 40c11.046 0 20-8.954 20-20S31.046 0 20 0 0 8.954 0 20s8.954 20 20 20z"/></clipPath></defs><g><g><g><path fill="#f0f3fa" d="M20 40c11.046 0 20-8.954 20-20S31.046 0 20 0 0 8.954 0 20s8.954 20 20 20z"/></g><g clip-path="url(#dy70a)"><g><path fill="#8a92b2" d="M20 5.63V16.469c0 .047-.045.093-.09.093-.312.14-.58.28-.892.419-.402.186-.848.372-1.25.605l-1.473.697-1.206.559-1.473.697c-.402.186-.803.373-1.25.605-.312.14-.67.326-.982.465-.045 0-.045.047-.09 0h-.044c.134-.232.268-.418.402-.651.714-1.256 1.473-2.512 2.187-3.768.76-1.35 1.563-2.698 2.322-4.047.714-1.256 1.428-2.512 2.143-3.722.535-.93 1.071-1.814 1.562-2.744.09 0 .09-.047.134-.047-.045 0 0 0 0 0z"/></g><g><path fill="#454a75" d="M28.75 20.314c-.673.462-1.391.877-2.064 1.293-2.199 1.34-4.353 2.633-6.551 3.972-.045 0-.045.046-.09.046S20 25.579 20 25.579v-.139-9.005-.139c0-.046.045-.046.09-.046.18.092.359.185.583.277.539.277 1.122.508 1.66.785.494.231.943.462 1.436.647.494.23.943.462 1.436.692.404.185.853.37 1.257.6.403.186.852.37 1.256.601.314.139.628.323.987.462 0-.046 0 0 .045 0z"/></g><g><path fill="#8a92b2" d="M20 34.38s-.045 0 0 0c-.045 0-.045 0-.09-.046-.897-1.282-1.75-2.518-2.647-3.8l-2.692-3.846c-.853-1.237-1.75-2.473-2.603-3.755l-.673-.961c0-.046-.045-.046-.045-.092.045 0 .045.046.09.046 1.211.732 2.468 1.465 3.68 2.198 1.39.87 2.826 1.694 4.217 2.564.225.137.494.274.718.412.045 0 .045.046.045.091v7.189z"/></g><g><path fill="gray" d="M11.25 20s.063 0 0 0c.063 0 .063 0 0 0 0 .063 0 .063 0 0z"/></g><g><path fill="#62688f" d="M11.25 20.377c0-.046 0-.046 0 0 .449-.23.897-.413 1.346-.642l1.75-.825c.449-.23.898-.413 1.346-.642.629-.321 1.302-.596 1.93-.917.449-.184.897-.413 1.346-.597.314-.137.628-.275.942-.458.045 0 .045-.046.09-.046v9.355c-.045.045-.045 0-.09 0-.134-.092-.269-.138-.359-.23l-8.211-4.952c-.045-.046-.09-.046-.09-.046z"/></g><g><path fill="#62688f" d="M28.75 21.88c0 .046 0 .046-.045.092-2.63 3.754-5.26 7.463-7.889 11.218-.272.412-.544.778-.816 1.19v-.046-.091-7.006-.137c.59-.367 1.179-.733 1.768-1.053l6.937-4.121c0-.046.045-.046.045-.046z"/></g><g><path fill="#62688f" d="M20 16.518v-.094-10.7-.094l8.66 14.86c.045.047.09.093.09.14-.18-.093-.36-.187-.586-.28-.226-.094-.451-.234-.677-.327-.135-.047-.27-.14-.45-.187-.226-.094-.497-.234-.723-.328-.135-.046-.27-.14-.405-.186l-.948-.421c-.18-.093-.315-.14-.496-.234-.225-.093-.45-.233-.676-.327-.136-.046-.271-.14-.406-.187l-.947-.42c-.18-.094-.316-.14-.497-.234-.225-.093-.45-.233-.676-.327-.135-.093-.316-.14-.451-.234l-.812-.42z"/></g></g></g></g></svg>