<svg xmlns="http://www.w3.org/2000/svg" width="40" height="40" viewBox="0 0 40 40"><g><g><g><g><path fill="#adb8cc" d="M20.188 37.6C10.25 37.6 2.25 29.723 2.25 19.94c0-9.723 8-17.6 17.875-17.6 9.938 0 17.938 7.877 17.938 17.661 0 9.723-8 17.6-17.875 17.6zM40 20.062C40.063 9.292 31.25.554 20.25.492 9.313.433.375 9.109.375 19.94c-.062 10.769 8.75 19.446 19.75 19.507C31 39.508 39.875 30.831 40 20.062z"/></g><g><path fill="#adb8cc" d="M29.252 25.539c-.125.492-.188.923-.313 1.354-.187.554-.375 1.169-.5 1.784-.062.308-.187.37-.5.37H11.814a905.923 905.923 0 0 0 1.688-6.339 42.03 42.03 0 0 0-2.5.985c.312-.923.562-1.785.812-2.585 0-.061.188-.123.313-.184.562-.247 1.187-.431 1.75-.677a.87.87 0 0 0 .375-.431l2.625-9.6c.125-.37.25-.492.625-.492h5.687c-.687 2.584-1.312 5.046-2 7.692 1-.37 1.938-.739 3-1.17-.125.493-.312.924-.375 1.354-.125.985-.687 1.539-1.687 1.785-.438.123-.875.308-1.313.492-.187.062-.312.247-.375.37-.437 1.661-.812 3.261-1.25 4.923v.184l10.063.185zM20.189 4.985c-8.312-.061-15.125 6.523-15.25 14.83-.125 8.247 6.625 15.016 15.125 15.14 8.375.06 15.188-6.647 15.313-14.955 0-8.246-6.75-14.953-15.188-15.015z"/></g><g><path fill="#fff" d="M19.188 25.354c3.375.061 6.687.123 10.062.246-.125.492-.25.923-.313 1.354-.187.615-.375 1.17-.5 1.784-.062.308-.187.37-.5.37H11.814c.562-2.154 1.124-4.185 1.687-6.339a42.03 42.03 0 0 0-2.5.985c.25-.923.5-1.723.813-2.585 0-.123.187-.184.312-.184.563-.247 1.188-.431 1.75-.677.188-.062.375-.246.375-.431l2.625-9.6c.063-.37.188-.492.625-.492h5.688c-.688 2.523-1.313 5.046-2 7.692 1-.43 1.937-.8 3-1.17-.125.493-.313.924-.375 1.355-.125.984-.688 1.538-1.688 1.784-.438.123-.875.308-1.313.492a1.07 1.07 0 0 0-.375.37c-.437 1.661-.875 3.261-1.25 4.923v.123z"/></g></g></g></g></svg>