<svg xmlns="http://www.w3.org/2000/svg" width="20" height="23" viewBox="0 0 20 23"><g><g><path fill="#3d3d3d" d="M18.25 17.25H1.75v-1.192l2.033-2.033A.75.75 0 0 0 4 13.5V9.75a6 6 0 1 1 12 0v3.75a.75.75 0 0 0 .218.532l2.032 2.026zm-10.5 1.5h4.5a2.25 2.25 0 0 1-4.5 0zm11.783-3.533L17.5 13.192V9.75a7.5 7.5 0 0 0-6.75-7.463V.75h-1.5v1.537A7.5 7.5 0 0 0 2.5 9.75v3.442L.468 15.217a.75.75 0 0 0-.218.533V18c0 .414.336.75.75.75h5.25a3.75 3.75 0 1 0 7.5 0H19a.75.75 0 0 0 .75-.75v-2.25a.75.75 0 0 0-.217-.532z"/></g></g></svg>