<svg xmlns="http://www.w3.org/2000/svg" width="20" height="20" viewBox="0 0 20 20"><g><g><path fill="#7a8599" d="M16.37 5.404s-1.881-3.265-2.053-3.53A.793.793 0 0 0 13.26 1.6L6.158 5.404zm3.551 12.778c0 1.003-.85 1.818-1.897 1.818H1.897C.851 20 0 19.185 0 18.182V7.272C0 6.27.85 5.456 1.897 5.456h1.64l9.338-5.21a1.935 1.935 0 0 1 1.428-.183c.488.125.895.426 1.148.848l2.724 4.56c.974.075 1.746.85 1.746 1.803v10.909zm-1.271-2.916h-2.723c-1.5 0-2.722-1.164-2.722-2.596 0-1.431 1.221-2.595 2.722-2.595h2.723V7.479c0-.477-.407-.865-.908-.865H2.316c-.5 0-.907.388-.907.865v10.383c0 .477.407.865.907.865h15.426c.5 0 .908-.388.908-.865zm.007-4.107h-2.583c-.922 0-1.67.672-1.67 1.499 0 .827.748 1.499 1.67 1.499h2.583z"/></g></g></svg>