<svg xmlns="http://www.w3.org/2000/svg" width="45" height="45" viewBox="0 0 45 45"><g><g><g><path fill="#fff" d="M36.827 9.04l2.054-1.921a22.865 22.865 0 0 0-2.188-2.049L34.91 7.245a19.784 19.784 0 0 1 1.917 1.795z"/></g><g><path fill="#fff" d="M39.857 13.303l2.486-1.313a22.28 22.28 0 0 0-1.572-2.55l-2.291 1.631c.508.713.968 1.458 1.377 2.232z"/></g><g><path fill="#fff" d="M43.566 14.726v.001l-2.64.97c3.752 10.206-1.48 21.52-11.685 25.272C19.035 44.72 7.72 39.489 3.97 29.283.218 19.078 5.45 7.763 15.655 4.012A19.688 19.688 0 0 1 32.77 5.726l1.478-2.39C23.678-3.169 9.838.128 3.335 10.698S.13 35.109 10.7 41.612s24.41 3.206 30.913-7.364a22.47 22.47 0 0 0 1.954-19.522z"/></g><g><path fill="#fff" d="M15.412 30.926v-7.031h10.555a3.517 3.517 0 0 1 3.518 3.516 3.517 3.517 0 0 1-3.518 3.515zm0-16.875h10.555a3.517 3.517 0 0 1 3.518 3.516 3.517 3.517 0 0 1-3.518 3.515H15.413zm11.25 23.907v-4.291a6.276 6.276 0 0 0 3.226-11.178 6.294 6.294 0 0 0 2.4-4.922 6.314 6.314 0 0 0-5.625-6.257V7.02H23.85v4.219h-2.813V7.02h-2.812v4.219H12.6v22.5h5.625v4.219h2.813v-4.22h2.812v4.22z"/></g></g></g></svg>