<svg xmlns="http://www.w3.org/2000/svg" width="45" height="45" viewBox="0 0 45 45"><g><g><g><path fill="#fff" d="M40.96 15.714l2.646-.97A22.48 22.48 0 0 0 42.383 12l-2.493 1.316c.41.775.767 1.576 1.07 2.398z"/></g><g><path fill="#fff" d="M40.8 9.442a22.803 22.803 0 0 0-1.903-2.322L36.84 9.045c.6.64 1.156 1.32 1.665 2.034z"/></g><g><path fill="#fff" d="M44.448 17.62v.007l-2.752.61c2.368 10.638-4.337 21.182-14.975 23.55C16.08 44.155 5.538 37.451 3.17 26.812.802 16.173 7.506 5.629 18.145 3.262a19.734 19.734 0 0 1 16.78 3.984l1.784-2.18C27.085-2.788 12.918-1.352 5.065 8.272c-7.852 9.624-6.416 23.792 3.208 31.644 9.624 7.853 23.792 6.417 31.644-3.208a22.49 22.49 0 0 0 4.53-19.09z"/></g><g><path fill="#fff" d="M22.438 25.507l-6.125-2.722 6.125-10.207 6.125 10.207zm0 7.219l-4.136-5.979 4.136 1.845 4.135-1.845zM12.61 23.48l9.828 14.196 9.828-14.196L22.438 7.1z"/></g></g></g></svg>