<svg xmlns="http://www.w3.org/2000/svg" width="45" height="45" viewBox="0 0 45 45"><g><g><g><path fill="#fff" d="M36.835 9.04l2.053-1.922A22.647 22.647 0 0 0 36.7 5.07l-1.78 2.177a19.732 19.732 0 0 1 1.915 1.793z"/></g><g><path fill="#fff" d="M39.867 13.303l2.486-1.315a22.662 22.662 0 0 0-1.572-2.548l-2.291 1.633c.508.712.968 1.457 1.377 2.23z"/></g><g><path fill="#fff" d="M43.574 14.727l-2.64.97c3.753 10.206-1.478 21.52-11.683 25.273S7.731 39.492 3.979 29.287C.226 19.082 5.457 7.767 15.662 4.014a19.687 19.687 0 0 1 17.116 1.713l1.478-2.39C23.685-3.168 9.84.128 3.336 10.7-3.167 21.27.129 35.114 10.7 41.62c10.571 6.504 24.414 3.207 30.919-7.364a22.475 22.475 0 0 0 1.955-19.529z"/></g><g><path fill="#fff" d="M32.297 33.746v-2.813H18.544l1.226-6.13 6.019-2.407-1.046-2.613-4.315 1.727 1.997-9.989-2.756-.551-2.359 11.786-6.63 2.652 1.046 2.613 4.926-1.972-1.54 7.697z"/></g></g></g></svg>