<svg id="Layer_1" data-name="Layer 1" xmlns="http://www.w3.org/2000/svg" viewBox="0 0 115.95 29.82"><defs><style>.cls-1{fill:none;}.cls-2{fill:#1f7eff;}.cls-3,.cls-4,.cls-5,.cls-6{isolation:isolate;}.cls-4,.cls-5,.cls-6{font-size:28px;font-family:MuseoSansCyrl-900, Museo Sans Cyrl;}.cls-4{letter-spacing:-0.03em;}.cls-6{letter-spacing:-0.02em;}.cls-7{letter-spacing:-0.01em;}</style></defs><title>logo2</title><path class="cls-1" d="M20.2,18a1.91,1.91,0,0,0,0-3.82,2,2,0,0,0-.89.22,2.21,2.21,0,0,0-1.07,1.69,2.09,2.09,0,0,0,1.07,1.68A3.43,3.43,0,0,0,20.2,18Z" transform="translate(0)"/><circle class="cls-1" cx="5.44" cy="16.29" r="1.91"/><path class="cls-1" d="M20.09,7a2.17,2.17,0,0,0-2-1H7.69A2.39,2.39,0,0,0,5.61,7.19l-2,4.66H22.22c-.22-.73-.5-1.34-.78-2.07V9.72C20.82,8.49,20.26,7.31,20.09,7Zm.11,7.18a2,2,0,0,0-.89.22,2.21,2.21,0,0,0-1.07,1.69,2.09,2.09,0,0,0,1.07,1.68,2.76,2.76,0,0,0,.84.23,1.9,1.9,0,0,0,1.91-1.89v0a1.82,1.82,0,0,0-1.73-1.91Z" transform="translate(0)"/><circle class="cls-1" cx="5.44" cy="16.29" r="1.91"/><path class="cls-1" d="M21.38,9.78A15.32,15.32,0,0,0,20.09,7a2.17,2.17,0,0,0-2-1H7.69A2.39,2.39,0,0,0,5.61,7.19l-2,4.66H22.22C21.94,11.12,21.66,10.49,21.38,9.78Z" transform="translate(0)"/><path class="cls-2" d="M12.94,20.87,22.67,25a1.42,1.42,0,0,0,1.46-1.23V22a1.88,1.88,0,0,0,1.69-1.8V13.7a2,2,0,0,0-1.38-1.79c-.9-2.19-2.25-5.39-2.53-5.84l-.11-.22a4.49,4.49,0,0,0-3.7-2H7.69A4.53,4.53,0,0,0,3.37,7.11l-2.08,4.8A1.89,1.89,0,0,0,0,13.7v6.46A1.86,1.86,0,0,0,1.68,22v1.86A1.22,1.22,0,0,0,3,25H3l9.91-4.11m-9.4-4.58A1.91,1.91,0,0,1,7.35,16a1.31,1.31,0,0,1,0,.28m11-.17a2.13,2.13,0,0,1,1.06-1.69,2.83,2.83,0,0,1,.9-.22,1.9,1.9,0,0,1,1.91,1.87v0" transform="translate(0)"/><g class="cls-3"><text class="cls-4" transform="translate(31.06 23.8)">L</text><text class="cls-5" transform="translate(46.38 23.8)">o</text><text class="cls-6" transform="translate(64.35 23.8)">r<tspan class="cls-7" x="11.48" y="0">I</tspan></text><text class="cls-5" transform="translate(85.04 23.8)">ps</text></g></svg>