<svg id="Layer_1" data-name="Layer 1" xmlns="http://www.w3.org/2000/svg" viewBox="0 0 132.06 29.82"><defs><style>.cls-1{fill:none;}.cls-2,.cls-3{fill:#fff;}.cls-3{font-size:28px;font-family:MuseoSansCyrl-900, Museo Sans Cyrl;}.cls-4{letter-spacing:0em;}.cls-5{letter-spacing:-0.01em;}</style></defs><title>logo</title><path class="cls-1" d="M20.76,24.54a1.91,1.91,0,0,0,0-3.82,2,2,0,0,0-.89.22,2.2,2.2,0,0,0-1.07,1.69,2.09,2.09,0,0,0,1.07,1.68A3.54,3.54,0,0,0,20.76,24.54Z" transform="translate(-0.56 -6.51)"/><circle class="cls-1" cx="5.44" cy="16.29" r="1.91"/><path class="cls-1" d="M20.65,13.54a2.18,2.18,0,0,0-2-1H8.25A2.4,2.4,0,0,0,6.17,13.7l-2,4.66H22.78c-.22-.73-.5-1.34-.78-2.07v-.06C21.38,15,20.82,13.82,20.65,13.54Zm.11,7.18a2,2,0,0,0-.89.22,2.2,2.2,0,0,0-1.07,1.69,2.09,2.09,0,0,0,1.07,1.68,2.73,2.73,0,0,0,.84.23,1.9,1.9,0,0,0,1.91-1.91A1.82,1.82,0,0,0,20.76,20.72Z" transform="translate(-0.56 -6.51)"/><circle class="cls-1" cx="5.44" cy="16.29" r="1.91"/><path class="cls-1" d="M21.94,16.29a15.63,15.63,0,0,0-1.29-2.75,2.18,2.18,0,0,0-2-1H8.25A2.4,2.4,0,0,0,6.17,13.7l-2,4.66H22.78C22.5,17.63,22.22,17,21.94,16.29Z" transform="translate(-0.56 -6.51)"/><path class="cls-2" d="M13.5,27.38l9.73,4.11a1.42,1.42,0,0,0,1.46-1.23V28.52a1.88,1.88,0,0,0,1.69-1.8V20.21A2,2,0,0,0,25,18.42c-.9-2.19-2.25-5.39-2.53-5.84l-.11-.22a4.49,4.49,0,0,0-3.7-2H8.25a4.53,4.53,0,0,0-4.32,3.26L1.85,18.42A1.88,1.88,0,0,0,.56,20.21v6.46a1.86,1.86,0,0,0,1.68,1.79v1.86a1.23,1.23,0,0,0,1.35,1.17l9.91-4.11M4.1,22.8a1.91,1.91,0,1,1,3.81,0m11-.17a2.12,2.12,0,0,1,1.06-1.69,2.7,2.7,0,0,1,.9-.22,1.89,1.89,0,0,1,1.91,1.91" transform="translate(-0.56 -6.51)"/><text class="cls-3" transform="translate(31.06 23.8)"><tspan class="cls-4">L</tspan><tspan x="15.32" y="0">o</tspan><tspan class="cls-5" x="33.29" y="0">rI</tspan><tspan x="53.98" y="0">ps</tspan></text></svg>