<svg xmlns="http://www.w3.org/2000/svg" width="23" height="24" viewBox="0 0 23 24"><g><g><path fill="#7a8599" d="M18.825 6.485s-2.163-3.918-2.36-4.236a.888.888 0 0 0-1.217-.328L7.081 6.485zm4.084 15.333A2.184 2.184 0 0 1 20.727 24H2.182A2.184 2.184 0 0 1 0 21.818V8.728c0-1.204.979-2.182 2.182-2.182h1.886L14.807.294a2.156 2.156 0 0 1 2.962.798L20.9 6.563a2.177 2.177 0 0 1 2.008 2.165v13.09zm-1.462-3.499h-3.13a3.126 3.126 0 0 1-3.131-3.115 3.126 3.126 0 0 1 3.13-3.114h3.131V8.975c0-.572-.468-1.038-1.043-1.038H2.664c-.576 0-1.044.466-1.044 1.038v12.459c0 .572.468 1.038 1.044 1.038h17.74c.575 0 1.043-.466 1.043-1.038zm.008-4.928h-2.97c-1.06 0-1.921.807-1.921 1.799 0 .991.861 1.798 1.92 1.798h2.971z"/></g></g></svg>